<?xml version="1.0" encoding="utf-8"?>
<!-- Generator: Adobe Illustrator 15.1.0, SVG Export Plug-In . SVG Version: 6.00 Build 0)  -->
<!DOCTYPE svg PUBLIC "-//W3C//DTD SVG 1.1//EN" "http://www.w3.org/Graphics/SVG/1.1/DTD/svg11.dtd">
<svg version="1.1" id="Layer_1" xmlns="http://www.w3.org/2000/svg" xmlns:xlink="http://www.w3.org/1999/xlink" x="0px" y="0px"
	 width="294.734px" height="287.998px" viewBox="0 0 294.734 287.998" enable-background="new 0 0 294.734 287.998"
	 xml:space="preserve">
<g>
	<path fill="#FFF78F" d="M289.808,46.811c-3.274,0-1.022-37.047-2.941-38.967c-2.081-2.081-41.333-0.667-41.333-3.133
		c0-5.2,44.837-4.038,46.982-1.892C295.037,5.339,292.534,46.811,289.808,46.811z"/>
	<path fill="#FFF78F" d="M2.041,2.818C4.188,0.672,49.025-0.49,49.025,4.71c0,2.466-39.252,1.052-41.333,3.133
		C5.773,9.762,8.025,46.811,4.749,46.811C2.025,46.811-0.478,5.339,2.041,2.818z"/>
	<path fill="#FFF78F" d="M292.516,284.993c-2.146,2.146-46.982,3.309-46.982-1.893c0-2.466,39.252-1.052,41.332-3.133
		c1.92-1.919-0.332-38.967,2.942-38.967C292.534,241.002,295.036,282.474,292.516,284.993z"/>
	<path fill="#FFF78F" d="M4.75,241.002c3.274,0,1.022,37.048,2.941,38.967c2.081,2.081,41.333,0.667,41.333,3.134
		c0,5.199-44.837,4.037-46.982,1.892C-0.478,282.474,2.025,241.002,4.75,241.002z"/>
</g>
<g>
	<path fill="#FFF78F" d="M119.532,190.154c-1.128-0.015-16.18,26.601-17.677,28.47c-1.501,1.869-5.999,7.497-8.243,7.497
		c-1.382,0-0.188-19.724,0-23.102c0.191-3.376,0-14.491-0.753-14.491c-1.499,0-3.679,2.557-5.174,4.249
		c-1.502,1.687-12.18,12.181-16.862,15.17c-4.687,3.001-5.734,4.706-3.747,7.684c0.378,0.553,3.562,1.685,5.991-0.574
		c2.438-2.238,14.238-16.111,15.178-16.111c0.935,0-0.745,17.05-1.315,23.231c-0.56,6.194,1.688,15.372,6.183,15.372
		c4.498,0,21.17-28.29,22.67-30.538c1.496-2.243,3.805-5.644,5.308-5.74c2.121-0.146,3.872,22.603-4.623,29.59
		c-1.435,2.371,4.374,9.497,6.812,7.997C129.083,235.117,129.823,190.27,119.532,190.154z"/>
	<path fill="#FFF78F" d="M90.87,169.297c4.352-1.74,3.934-3.498,3.369-4.618c-0.565-1.128-11.236-1.5-11.236,1.128
		C83.003,170.669,85.871,171.298,90.87,169.297z"/>
	<path fill="#FFF78F" d="M172.633,162.405c0,4.868,2.881,5.49,7.875,3.491c4.353-1.741,3.935-3.499,3.372-4.628
		C183.315,160.149,172.633,159.771,172.633,162.405z"/>
	<path fill="#FFF78F" d="M207.422,172.668c0.019-0.103,0.038-0.214,0.053-0.289c0.752-3.74,2.373-12.375,2.878-16.365
		c0.506-3.989,2.531-15.755,2.251-16.973c-0.371-1.633-2.751-3.13-4.749-2.627c-1.821,0.464-7.119,29.723-8.621,33.481
		c-0.646,1.617-1.573,4.029-2.488,6.479c-3.711,1.589-6.056,3.133-5.746,4.368c0.341,1.355,1.59,2.019,3.376,2.211
		c-0.205,0.604-0.381,1.14-0.507,1.558c-0.874,2.866-5.375,15.226-6.996,19.723c-1.62,4.488-5.128,12.992-6.867,12.992
		c-1.745,0,7.375-35.611,1.25-35.732c-1.631-0.031-15.605,16.122-23.85,22.377c-4.98,3.765-9.733,6.995-5.995,9.993
		c2.492,1.984,5.992-0.498,8.994-3.756c7.227-7.825,14.989-16.483,15.983-15.999c0.652,0.321-4.246,34.478-3.876,36.465
		c0.379,1.999,0.748,3.878,3.377,3.749c2.621-0.112,5.993-5.624,8.49-9.737c2.505-4.124,14.103-39.559,14.989-39.472
		c2.37,0.258-4.347,37.015-2.628,46.461c0.75,4.126,3.378,7.497,6.627,7.497c3.247,0,4.238-5.869,1.739-5.99
		c-2.499-0.127-2.363-6.386-2.871-12.881c-0.369-4.82,2.288-26.785,3.985-39.309c4.469-1.408,8.755-3.186,11.008-4.26
		c5.744-2.755,16.103-5.256,15.228-8.623C232.121,166.73,218.86,169.289,207.422,172.668z"/>
	<path fill="#FFF78F" d="M155.1,125.082c3.226-18.913,16.295-36.288,20.293-36.288c1.232,0,3.785,24.765,5.997,36.751
		c1.076,5.837,4.663,3.019,8.869-0.383c3.973-3.498,9.074-10.721,10.285-10.871c1.603-0.208,2.303,1.895,6.203,5.792
		c4.2,4.2,14.984,1.797,18.988-1.592c4.812-4.088,8.393-12.603,6.393-19.4c-1.437-4.879-5.593-12.189-9.994-12.189
		c-4.999,0-10.39,6.794-11.591,13.199c-1.017,5.399,2.395,10.99,5.797,10.789c0.798-0.053,1.925-7.891,2.998-11.798
		c2.2-7.991,6.683-1.386,6.997,4.806c0.201,3.994-6.597,10.99-12.195,10.99c-4.409,0-10.192-8.389-10.592-10.587
		c-0.397-2.201-0.201-4.409-3.198-4.409c-3,0-2.001,8.206-2.597,11.603c-0.525,2.97-10.26,9.798-11.656,10.253
		c-0.681-6.114-5.442-42.181-9.472-42.181c-10.015,0-24.296,31.368-25.216,33.979c-2.924,0.463-2.46-67.83-2.77-69.364
		c-0.307-1.539-4.733-4.601-4.917-3.381c-4.045,26.861-14.694,76.692-17.218,76.901c-3.692,0.306-4.925-32.287-7.996-46.74
		c-0.549-2.574-3.278-3.57-4.305-3.38c-4.921,0.922-14.453,45.816-16.299,46.123c-1.846,0.305-1.846-3.693-4.609-15.376
		C90.527,86.644,84.07,82.34,78.226,82.34c-5.84,0-13.729,5.131-14.035,6.977c0,0,0.612,3.381,2.765,3.381s3.585-5.748,13.423-6.363
		c9.837-0.608,8.919,39.359,15.682,39.666c6.764,0.31,15.377-43.354,17.533-43.354c2.152,0,5.222,25.829,5.837,32.904
		c0.621,7.072,2.792,11.5,7.383,11.066c6.458-0.616,12.913-41.817,14.759-42.129c1.846-0.305,2.921,19.991,4.151,27.365
		c1.228,7.383,2.085,12.278,2.917,14.61C150.177,130.77,154.219,130.263,155.1,125.082z"/>
</g>
</svg>
