<?xml version="1.0" encoding="utf-8"?>
<!-- Generator: Adobe Illustrator 15.1.0, SVG Export Plug-In . SVG Version: 6.00 Build 0)  -->
<!DOCTYPE svg PUBLIC "-//W3C//DTD SVG 1.1//EN" "http://www.w3.org/Graphics/SVG/1.1/DTD/svg11.dtd">
<svg version="1.1" id="Layer_1" xmlns="http://www.w3.org/2000/svg" xmlns:xlink="http://www.w3.org/1999/xlink" x="0px" y="0px"
	 width="294.734px" height="287.998px" viewBox="36 36 294.734 287.998" enable-background="new 36 36 294.734 287.998"
	 xml:space="preserve">
<g>
	<path fill="#FFF78F" d="M49.177,85.466c8.303,0,8.82-29.473,7.679-37.4c7.796,0.332,36.595,2.925,36.595-4.7
		c0-10.472-42.128-8.542-46.984-1.892C42.205,47.311,42.502,85.466,49.177,85.466z"/>
	<path fill="#FFF78F" d="M49.177,274.536c8.303,0,8.82,29.467,7.679,37.395c7.796-0.33,36.595-2.925,36.595,4.7
		c0,10.474-42.128,8.542-46.984,1.892C42.205,312.69,42.502,274.536,49.177,274.536z"/>
	<path fill="#FFF78F" d="M326.451,85.466c-8.303,0-8.818-29.473-7.68-37.4c-7.795,0.332-36.594,2.925-36.594-4.7
		c0-10.472,42.129-8.542,46.982-1.892C333.423,47.311,333.126,85.466,326.451,85.466z"/>
	<path fill="#FFF78F" d="M326.451,274.536c-8.303,0-8.818,29.467-7.68,37.395c-7.795-0.33-36.594-2.925-36.594,4.7
		c0,10.474,42.129,8.542,46.982,1.892C333.423,312.69,333.126,274.536,326.451,274.536z"/>
</g>
<g>
	<g display="none">
		<path display="inline" fill="#FFF78F" d="M313.027,99.75c-1.834-1.287-1.961-6.519,0.418-7.698
			c9.084-4.471,20.678,8.25,17.857,22.442c-1.574,7.873-11.178,43.216-13.412,53.649c-1.965,9.186-8.02,37.28-8.57,48.073
			c-0.74,14.539,1.111,24.603,1.111,29.068c0,2.7-3.855,6.356-4.465,1.121c-3.73-32.052,3.816-60.271,4.846-65.967
			c2.982-16.396,12.777-54.688,13.953-60.714C329.652,94.577,317.218,102.67,313.027,99.75z"/>
		<path display="inline" fill="#FFF78F" d="M316.769,271.622c2.232,0,4.838,11.555,2.971,13.058
			c-1.857,1.472-8.557-1.132-8.938-5.607C310.427,274.605,316.769,271.622,316.769,271.622z"/>
	</g>
	<g>
		<g>
			<g>
				<path fill="#FFF78F" d="M93.435,259.833c-2.404-3.599-1.137-5.664,4.533-9.293c5.666-3.617,18.581-16.312,20.399-18.352
					c1.809-2.047,4.446-5.139,6.26-5.139c0.912,0,1.142,13.447,0.912,17.531c-0.229,4.086-1.672,27.946,0,27.946
					c2.716,0,8.156-6.806,9.971-9.067c1.813-2.263,20.019-34.459,21.384-34.44c12.451,0.137,11.555,54.392,4.534,58.915
					c-2.95,1.814-9.976-6.807-8.24-9.673c10.277-8.454,8.157-35.972,5.593-35.796c-1.818,0.117-4.612,4.231-6.421,6.943
					c-1.814,2.721-21.983,36.945-27.425,36.945c-5.437,0-8.156-11.105-7.479-18.596c0.688-7.479,2.721-28.103,1.59-28.103
					c-1.136,0-15.411,16.781-18.361,19.492C97.745,261.872,93.893,260.505,93.435,259.833z"/>
				<path fill="#FFF78F" d="M112.703,199.562c0-3.179,12.91-2.729,13.593-1.365c0.683,1.354,1.189,3.481-4.076,5.587
					C116.173,206.204,112.703,205.442,112.703,199.562z"/>
			</g>
			<g>
				<path fill="#FFF78F" d="M221.132,195.447c0-3.188,12.92-2.729,13.603-1.375c0.679,1.365,1.187,3.491-4.08,5.599
					C224.614,202.087,221.132,201.337,221.132,195.447z"/>
				<path fill="#FFF78F" d="M195.455,257.697c-4.521-3.627,1.229-7.536,7.254-12.091c9.972-7.566,26.879-27.107,28.849-27.068
					c7.411,0.146-3.622,43.227-1.511,43.227c2.104,0,6.348-10.287,8.308-15.719c1.96-5.44,7.405-20.39,8.464-23.86
					c1.053-3.481,4.682-13.154,6.489-17.679c1.817-4.545,8.226-39.942,10.429-40.503c2.418-0.609,5.295,1.204,5.743,3.179
					c0.341,1.473-2.11,15.704-2.722,20.533c-0.613,4.826-2.573,15.271-3.48,19.795c-0.906,4.544-6.941,50.003-6.338,57.852
					c0.614,7.859,0.448,15.428,3.473,15.582c3.021,0.146,1.822,7.245-2.106,7.245s-7.108-4.076-8.017-9.067
					c-2.076-11.429,6.047-55.894,3.181-56.205c-1.073-0.106-15.104,42.759-18.132,47.75c-3.023,4.975-7.101,11.644-10.273,11.779
					c-3.18,0.156-3.627-2.115-4.085-4.533c-0.449-2.408,5.479-43.724,4.688-44.113c-1.203-0.586-10.594,9.888-19.336,19.354
					C202.708,257.093,198.471,260.097,195.455,257.697z"/>
				<path fill="#FFF78F" d="M293.5,202.225c-0.727-2.771-51.666,9.36-50.153,15.405c1.813,7.217,24.776-1.656,31.729-4.973
					C282.027,209.323,294.557,206.3,293.5,202.225z"/>
			</g>
		</g>
		<path fill="#FFF78F" d="M293.104,118.857c-1.739-5.904-6.767-14.748-12.091-14.748c-6.047,0-12.569,8.22-14.021,15.967
			c-1.229,6.533,2.896,13.295,7.012,13.052c0.965-0.063,2.33-9.546,3.627-14.271c2.662-9.668,8.084-1.678,8.463,5.812
			c0.244,4.831-7.979,13.295-14.752,13.295c-5.334,0-12.33-10.15-12.812-12.808c-0.482-2.662-0.244-5.334-3.871-5.334
			c-3.628,0-2.419,9.927-3.14,14.037c-0.634,3.593-12.413,11.852-14.101,12.403c-0.824-7.396-6.582-51.027-11.457-51.027
			c-12.115,0-29.391,37.946-30.506,41.105c-3.535,0.561-2.975-58.584-3.351-60.441c-0.37-1.862-4.456-4.091-5.948-4.091
			c-1.486,0-17.775,69.306-20.827,69.559c-4.467,0.371-5.958-39.058-9.673-56.541c-0.664-3.115-3.964-4.319-5.207-4.09
			c-5.953,1.116-17.484,55.424-19.717,55.795c-2.233,0.37-2.233-4.467-5.577-18.601c-3.35-14.134-11.16-19.341-18.229-19.341
			c-7.064,0-45.376,24.548-45.747,26.781c0,0,0.741,4.09,3.345,4.09s33.104-25.293,45.006-26.039
			c11.9-0.736,10.789,47.613,18.97,47.984c8.182,0.375,18.601-52.445,21.209-52.445c2.604,0,6.318,31.246,7.06,39.803
			c0.751,8.557,3.379,13.915,8.932,13.389c7.811-0.746,15.621-50.588,17.854-50.964c2.233-0.37,3.534,24.183,5.022,33.104
			c1.485,8.932,2.524,14.851,3.528,17.674c1.862,5.207,6.748,4.593,7.815-1.673c3.904-22.88,19.711-43.898,24.548-43.898
			c1.491,0,4.583,29.96,7.255,44.46c1.302,7.06,5.641,3.651,10.73-0.464c4.803-4.231,10.976-12.969,12.441-13.149
			c1.939-0.253,2.784,2.292,7.504,7.007c5.08,5.08,18.127,2.174,22.969-1.926C291.193,137.378,295.523,127.077,293.104,118.857z"/>
	</g>
</g>
</svg>
