<?xml version="1.0" encoding="utf-8"?>
<!-- Generator: Adobe Illustrator 15.1.0, SVG Export Plug-In . SVG Version: 6.00 Build 0)  -->
<!DOCTYPE svg PUBLIC "-//W3C//DTD SVG 1.1//EN" "http://www.w3.org/Graphics/SVG/1.1/DTD/svg11.dtd">
<svg version="1.1" id="Layer_1" xmlns="http://www.w3.org/2000/svg" xmlns:xlink="http://www.w3.org/1999/xlink" x="0px" y="0px"
	 width="463.834px" height="526.551px" viewBox="-169.308 -179.501 463.834 526.551"
	 enable-background="new -169.308 -179.501 463.834 526.551" xml:space="preserve">
<g>
	<path fill="#FFF78F" d="M-16.971,212.393c-3.105-0.037-44.538,73.228-48.661,78.372c-4.129,5.147-16.512,20.638-22.69,20.638
		c-3.804,0-0.519-54.294,0-63.596c0.527-9.289,0-39.885-2.073-39.885c-4.125,0-10.125,7.036-14.241,11.691
		c-4.135,4.645-33.529,33.531-46.417,41.76c-12.9,8.262-15.784,12.957-10.313,21.152c1.041,1.524,9.807,4.636,16.491-1.576
		c6.71-6.161,39.193-44.351,41.78-44.351c2.575,0-2.052,46.935-3.619,63.945c-1.544,17.05,4.645,42.313,17.019,42.313
		c12.383,0,58.274-77.872,62.403-84.059c4.119-6.175,10.474-15.537,14.61-15.803c5.839-0.401,10.66,62.219-12.726,81.452
		c-3.948,6.528,12.041,26.146,18.753,22.014C9.319,336.163,11.356,212.717-16.971,212.393z"/>
	<path fill="#FFF78F" d="M-95.87,154.981c11.981-4.788,10.831-9.628,9.275-12.714c-1.556-3.102-30.931-4.126-30.931,3.112
		C-117.527,158.757-109.632,160.49-95.87,154.981z"/>
	<path fill="#FFF78F" d="M129.198,136.009c0,13.4,7.931,15.115,21.679,9.608c11.983-4.79,10.835-9.626,9.279-12.736
		C158.606,129.802,129.198,128.76,129.198,136.009z"/>
	<path fill="#FFF78F" d="M224.962,164.262c0.053-0.283,0.104-0.59,0.149-0.796c2.067-10.293,6.532-34.065,7.921-45.046
		c1.393-10.984,6.967-43.37,6.197-46.723c-1.021-4.494-7.571-8.617-13.072-7.233c-5.016,1.277-19.598,81.819-23.731,92.166
		c-1.783,4.451-4.333,11.086-6.851,17.833c-10.215,4.373-16.668,8.624-15.817,12.023c0.939,3.73,4.374,5.558,9.291,6.087
		c-0.562,1.666-1.049,3.136-1.394,4.289c-2.404,7.892-14.795,41.914-19.26,54.288c-4.457,12.357-14.115,35.765-18.899,35.765
		c-4.807,0,20.301-98.025,3.44-98.357c-4.489-0.086-42.955,44.377-65.652,61.598c-13.711,10.361-26.794,19.253-16.505,27.508
		c6.864,5.464,16.498-1.371,24.761-10.34c19.892-21.539,41.26-45.374,43.998-44.042c1.793,0.888-11.688,94.909-10.668,100.378
		c1.04,5.503,2.055,10.675,9.293,10.321c7.213-0.31,16.496-15.48,23.369-26.805c6.898-11.352,38.822-108.896,41.262-108.652
		c6.522,0.708-11.965,101.89-7.236,127.892c2.064,11.358,9.299,20.635,18.246,20.635c8.938,0,11.666-16.153,4.786-16.486
		c-6.881-0.351-6.505-17.577-7.906-35.457c-1.015-13.27,6.303-73.732,10.973-108.208c12.303-3.877,24.103-8.77,30.304-11.726
		c15.812-7.583,44.325-14.467,41.917-23.736C292.954,147.918,256.448,154.962,224.962,164.262z"/>
	<path fill="#FFF78F" d="M80.937,53.272c8.88-52.063,44.855-99.891,55.858-99.891c3.394,0,10.419,68.171,16.511,101.164
		c2.959,16.068,12.834,8.31,24.41-1.053c10.938-9.628,24.978-29.513,28.312-29.925c4.414-0.572,6.343,5.216,17.076,15.944
		c11.561,11.562,41.246,4.945,52.269-4.382c13.244-11.254,23.102-34.692,17.597-53.403c-3.955-13.431-15.392-33.553-27.511-33.553
		c-13.758,0-28.6,18.702-31.906,36.335c-2.797,14.861,6.595,30.251,15.957,29.698c2.202-0.146,5.303-21.722,8.254-32.477
		c6.057-21.997,18.398-3.815,19.26,13.23c0.555,10.994-18.159,30.252-33.565,30.252c-12.141,0-28.057-23.093-29.161-29.145
		c-1.091-6.057-0.551-12.135-8.8-12.135c-8.258,0-5.51,22.589-7.15,31.939c-1.445,8.175-28.244,26.971-32.086,28.224
		c-1.876-16.831-14.979-116.112-26.071-116.112c-27.569,0-66.882,86.347-69.415,93.534c-8.046,1.272-6.771-186.715-7.623-190.939
		c-0.846-4.235-13.029-12.663-13.534-9.307C38.482-104.789,9.169,32.381,2.219,32.957C-7.943,33.798-11.338-55.919-19.791-95.704
		c-1.512-7.085-9.022-9.827-11.85-9.305c-13.545,2.538-39.785,126.117-44.865,126.962c-5.082,0.839-5.082-10.166-12.689-42.326
		c-7.619-32.165-25.392-44.013-41.479-44.013c-16.074,0-37.792,14.125-38.633,19.206c0,0,1.686,9.307,7.61,9.307
		c5.927,0,9.867-15.821,36.95-17.515C-97.672-55.061-100.198,54.956-81.58,55.8c18.617,0.855,42.329-119.341,48.261-119.341
		c5.925,0,14.376,71.101,16.07,90.576c1.707,19.468,7.686,31.657,20.323,30.462C20.85,55.8,38.619-57.614,43.699-58.472
		c5.083-0.838,8.041,55.029,11.429,75.329c3.377,20.322,5.739,33.798,8.029,40.215C67.384,68.928,78.512,67.533,80.937,53.272z"/>
</g>
</svg>
