<?xml version="1.0" encoding="utf-8"?>
<!-- Generator: Adobe Illustrator 15.1.0, SVG Export Plug-In . SVG Version: 6.00 Build 0)  -->
<!DOCTYPE svg PUBLIC "-//W3C//DTD SVG 1.1//EN" "http://www.w3.org/Graphics/SVG/1.1/DTD/svg11.dtd">
<svg version="1.1" id="Layer_1" xmlns="http://www.w3.org/2000/svg" xmlns:xlink="http://www.w3.org/1999/xlink" x="0px" y="0px"
	 width="294.734px" height="287.998px" viewBox="0 0 294.734 287.998" enable-background="new 0 0 294.734 287.998"
	 xml:space="preserve">
<g>
	<path fill="#FFF78F" d="M249.284,1c3.274,0,1.022,37.047,2.941,38.967c2.081,2.081,41.333,0.667,41.333,3.133
		c0,5.2-44.837,4.038-46.982,1.892C244.055,42.471,246.558,1,249.284,1z"/>
	<path fill="#FFF78F" d="M47.983,44.992C45.837,47.139,1,48.301,1,43.101c0-2.466,39.252-1.052,41.333-3.133
		C44.252,38.049,42,1,45.275,1C48,1,50.503,42.472,47.983,44.992z"/>
	<path fill="#FFF78F" d="M246.576,242.815c2.146-2.146,46.982-3.309,46.982,1.893c0,2.466-39.252,1.052-41.332,3.133
		c-1.92,1.919,0.332,38.967-2.942,38.967C246.558,286.807,244.056,245.335,246.576,242.815z"/>
	<path fill="#FFF78F" d="M45.274,286.808c-3.274,0-1.022-37.048-2.941-38.967C40.252,245.76,1,247.174,1,244.707
		c0-5.199,44.837-4.037,46.982-1.892C50.502,245.336,47.999,286.808,45.274,286.808z"/>
</g>
<g display="none">
	<g display="inline">
		<g>
			<g>
				<path fill="#FFF78F" d="M67.075,219.631c-1.988-2.978-0.94-4.683,3.747-7.684c4.682-2.989,15.36-13.483,16.862-15.17
					c1.495-1.692,3.675-4.249,5.174-4.249c0.753,0,0.945,11.115,0.753,14.491c-0.188,3.378-1.382,23.102,0,23.102
					c2.245,0,6.742-5.628,8.243-7.497c1.498-1.869,16.549-28.484,17.677-28.47c10.292,0.115,9.551,44.963,3.748,48.703
					c-2.438,1.5-8.246-5.626-6.812-7.997c8.495-6.987,6.744-29.735,4.623-29.59c-1.503,0.097-3.812,3.497-5.308,5.74
					c-1.5,2.248-18.172,30.538-22.67,30.538c-4.495,0-6.743-9.178-6.183-15.372c0.57-6.182,2.25-23.231,1.315-23.231
					c-0.94,0-12.741,13.873-15.178,16.111C70.637,221.315,67.453,220.184,67.075,219.631z"/>
				<path fill="#FFF78F" d="M83.003,169.807c0-2.628,10.671-2.256,11.236-1.128c0.565,1.12,0.983,2.878-3.369,4.618
					C85.871,175.298,83.003,174.669,83.003,169.807z"/>
			</g>
			<g>
				<path fill="#FFF78F" d="M172.633,166.405c0-2.635,10.683-2.256,11.247-1.137c0.562,1.129,0.98,2.887-3.372,4.628
					C175.513,171.896,172.633,171.273,172.633,166.405z"/>
				<path fill="#FFF78F" d="M151.41,217.863c-3.738-2.998,1.015-6.229,5.995-9.993c8.244-6.255,22.219-22.408,23.85-22.377
					c6.125,0.121-2.995,35.732-1.25,35.732c1.739,0,5.247-8.504,6.867-12.992c1.621-4.497,6.122-16.856,6.996-19.723
					c0.87-2.879,3.871-10.875,5.365-14.616c1.502-3.758,6.8-33.017,8.621-33.481c1.998-0.503,4.378,0.995,4.749,2.627
					c0.28,1.218-1.745,12.983-2.251,16.973c-0.505,3.99-2.126,12.625-2.878,16.365c-0.747,3.755-5.736,41.332-5.239,47.821
					c0.508,6.495,0.372,12.754,2.871,12.881c2.499,0.121,1.508,5.99-1.739,5.99c-3.249,0-5.877-3.371-6.627-7.497
					c-1.719-9.446,4.998-46.203,2.628-46.461c-0.887-0.087-12.484,35.348-14.989,39.472c-2.497,4.113-5.869,9.625-8.49,9.737
					c-2.629,0.129-2.998-1.75-3.377-3.749c-0.37-1.987,4.528-36.144,3.876-36.465c-0.994-0.484-8.757,8.174-15.983,15.999
					C157.402,217.365,153.902,219.848,151.41,217.863z"/>
				<path fill="#FFF78F" d="M232.456,172.009c-0.6-2.29-42.709,7.736-41.457,12.733c1.5,5.965,20.479-1.369,26.229-4.11
					C222.972,177.877,233.331,175.376,232.456,172.009z"/>
			</g>
		</g>
		<path fill="#FFF78F" d="M232.129,103.092c-1.437-4.879-5.593-12.189-9.994-12.189c-4.999,0-10.39,6.794-11.591,13.199
			c-1.017,5.399,2.395,10.99,5.797,10.789c0.798-0.053,1.925-7.891,2.998-11.798c2.2-7.991,6.683-1.386,6.997,4.806
			c0.201,3.994-6.597,10.99-12.195,10.99c-4.409,0-10.192-8.389-10.592-10.587c-0.397-2.201-0.201-4.409-3.198-4.409
			c-3,0-2.001,8.206-2.597,11.603c-0.525,2.97-10.26,9.798-11.656,10.253c-0.681-6.114-5.442-42.181-9.472-42.181
			c-10.015,0-24.296,31.368-25.216,33.979c-2.924,0.463-2.46-67.83-2.77-69.364c-0.307-1.539-4.733-4.601-4.917-3.381
			c-4.045,26.861-14.694,76.692-17.218,76.901c-3.692,0.306-4.925-32.287-7.996-46.74c-0.549-2.574-3.278-3.57-4.305-3.38
			c-4.921,0.922-14.453,45.816-16.299,46.123c-1.846,0.305-1.846-3.693-4.609-15.376C90.527,90.644,84.07,86.34,78.226,86.34
			c-5.84,0-13.729,5.131-14.035,6.977c0,0,0.612,3.381,2.765,3.381s3.585-5.748,13.423-6.363
			c9.837-0.608,8.919,39.359,15.682,39.666c6.764,0.31,15.377-43.354,17.533-43.354c2.152,0,5.222,25.829,5.837,32.904
			c0.621,7.072,2.792,11.5,7.383,11.066c6.458-0.616,12.913-41.817,14.759-42.129c1.846-0.305,2.921,19.991,4.151,27.365
			c1.228,7.383,2.085,12.278,2.917,14.61c1.537,4.305,5.578,3.799,6.46-1.382c3.226-18.913,16.295-36.288,20.293-36.288
			c1.232,0,3.785,24.765,5.997,36.751c1.076,5.837,4.663,3.019,8.869-0.383c3.973-3.498,9.074-10.721,10.285-10.871
			c1.603-0.208,2.303,1.895,6.203,5.792c4.2,4.2,14.984,1.797,18.988-1.592C230.549,118.404,234.129,109.889,232.129,103.092z"/>
	</g>
</g>
<g>
	<path fill="#FFF78F" d="M231.609,161.04c-1.56-5.671-3.83-20.421-3.83-23.541c0-1.479-0.708-9.076-1.56-17.159
		c-0.934-8.854-1.985-18.236-1.985-19.428c0-2.269-4.798-4.167-5.673-3.971c-1.276,0.284-2.127,30.631-2.411,36.294
		c-0.282,5.673-2.978,27.512-4.678,32.334c-1.703,4.82-4.681,17.018-9.786,15.74c-5.673-1.418-3.828-42.402-4.679-44.67
		c-0.852-2.27-6.18-7.937-5.956,2.836c0.38,18.528-8.507,34.601-9.021,34.802c-0.337-0.105-4.99-33.101-7.997-33.101
		c-9.234,0-22.405,28.93-23.258,31.341c-2.692,0.424-2.269-62.001-2.551-63.419c-0.285-1.418-4.368-4.242-4.539-3.121
		c-1.405,9.206-13.553,70.172-15.884,70.367c-3.402,0.284-4.538-29.78-7.374-43.111c-0.505-2.37-3.023-3.297-3.97-3.12
		c-4.539,0.851-13.331,42.261-15.033,42.544c-1.702,0.283-1.702-3.404-4.254-14.182c-2.552-10.777-8.508-14.75-13.898-14.75
		c-5.39,0.022-34.603,18.724-34.887,20.433c0,0,0.569,3.131,2.561,3.12c1.992-0.01,25.243-19.286,34.32-19.854
		c9.075-0.568,8.227,36.295,14.459,36.588c6.241,0.284,14.182-39.991,16.167-39.991s4.822,23.825,5.38,30.345
		c0.568,6.518,2.562,10.605,6.805,10.21c5.957-0.567,11.914-38.573,13.614-38.856c1.702-0.285,2.69,18.444,3.829,25.248
		c1.133,6.804,1.913,11.33,2.689,13.471c1.419,3.959,5.148,3.52,5.956-1.275c2.979-17.443,15.033-33.467,18.72-33.467
		c1.135,0,3.44,18.264,4.915,29.403c0.513,3.854,4.683,2.276,6.078,0.267c1.664-2.398,7.485-13.221,8.299-13.221
		c1.137,0,2.433,10.709,4.243,16.166c2.551,7.657,8.794,4.243,9.492,3.688c4.874-3.895,8.084-17.017,9.502-23.541
		c1.364-6.266,3.403-43.395,4.112-43.252c0.847,0.181,6.105,48.633,13.479,61.973c3.378,6.104,6.285,2.068,5.949,1.137
		c-0.824-2.403-5.815-15.752-7.343-21.278L231.609,161.04L231.609,161.04z"/>
	<path fill="#FFF78F" d="M186.512,103.748c-1.795,0-2.552,2.269-0.567,4.254c1.986,1.992,6.519,2.846,7.942,1.708
		c1.417-1.135,2.835-2.27,1.417-4.538c-1.417-2.269-7.666-1.415-8.804-1.424H186.512z"/>
	<path fill="#FFF78F" d="M243.52,132.253c0.994,0.284,1.993,2.509,1.993,3.545c0,1.135-10.494,8.226-15.883,9.365
		c-5.39,1.135-12.196,1.559-12.48,0.141c-0.283-1.417-0.425-4.961,1.845-4.961c5.395,0,11.486-0.568,14.323-2.269
		c2.83-1.695,10.197-5.808,10.197-5.819L243.52,132.253L243.52,132.253z"/>
</g>
</svg>
