<?xml version="1.0" encoding="utf-8"?>
<!-- Generator: Adobe Illustrator 15.1.0, SVG Export Plug-In . SVG Version: 6.00 Build 0)  -->
<!DOCTYPE svg PUBLIC "-//W3C//DTD SVG 1.1//EN" "http://www.w3.org/Graphics/SVG/1.1/DTD/svg11.dtd">
<svg version="1.1" id="Layer_1" xmlns="http://www.w3.org/2000/svg" xmlns:xlink="http://www.w3.org/1999/xlink" x="0px" y="0px"
	 width="92px" height="132px" viewBox="0 0 92 132" enable-background="new 0 0 92 132" xml:space="preserve">
<path fill="#6FE4D0" d="M9.868,0.088c-1.663,0-1.767,5.903-1.538,7.491C6.769,7.513,1,6.994,1,8.521
	c0,2.098,8.438,1.711,9.411,0.379C11.265,7.731,11.205,0.088,9.868,0.088z"/>
<path fill="#6FE4D0" d="M8.868,131c-1.663,0-1.767-5.903-1.538-7.491C5.769,123.575,0,124.094,0,122.567
	c0-2.098,8.438-1.711,9.411-0.379C10.265,123.357,10.205,131,8.868,131z"/>
<path fill="#6FE4D0" d="M82.132,0.088c1.663,0,1.767,5.903,1.538,7.491C85.231,7.513,91,6.994,91,8.521
	c0,2.098-8.438,1.711-9.411,0.379C80.735,7.731,80.795,0.088,82.132,0.088z"/>
<path fill="#6FE4D0" d="M82.132,131c1.663,0,1.767-5.903,1.538-7.491c1.562,0.066,7.33,0.586,7.33-0.941
	c0-2.098-8.438-1.711-9.411-0.379C80.735,123.357,80.795,131,82.132,131z"/>
</svg>
