<?xml version="1.0" encoding="utf-8"?>
<!-- Generator: Adobe Illustrator 15.1.0, SVG Export Plug-In . SVG Version: 6.00 Build 0)  -->
<!DOCTYPE svg PUBLIC "-//W3C//DTD SVG 1.1//EN" "http://www.w3.org/Graphics/SVG/1.1/DTD/svg11.dtd">
<svg version="1.1" id="Layer_1" xmlns="http://www.w3.org/2000/svg" xmlns:xlink="http://www.w3.org/1999/xlink" x="0px" y="0px"
	 width="92px" height="132px" viewBox="0 0 92 132" enable-background="new 0 0 92 132" xml:space="preserve">
<path fill="#6FE4D0" d="M3.109,10.997c1.663,0,1.767-5.903,1.538-7.491c1.561,0.066,7.33,0.585,7.33-0.942
	c0-2.098-8.438-1.711-9.411-0.379C1.712,3.354,1.772,10.997,3.109,10.997z"/>
<path fill="#6FE4D0" d="M3.109,121.091c1.663,0,1.767,5.902,1.538,7.491c1.561-0.066,7.33-0.585,7.33,0.942
	c0,2.098-8.438,1.711-9.411,0.379C1.712,128.733,1.772,121.091,3.109,121.091z"/>
<path fill="#6FE4D0" d="M89.891,10.997c-1.663,0-1.767-5.903-1.538-7.491c-1.561,0.066-7.33,0.585-7.33-0.942
	c0-2.098,8.438-1.711,9.411-0.379C91.288,3.354,91.228,10.997,89.891,10.997z"/>
<path fill="#6FE4D0" d="M89.891,121.091c-1.663,0-1.767,5.902-1.538,7.491c-1.562-0.066-7.33-0.587-7.33,0.94
	c0,2.098,8.438,1.711,9.411,0.379C91.288,128.733,91.228,121.091,89.891,121.091z"/>
</svg>
