<?xml version="1.0" encoding="utf-8"?>
<!-- Generator: Adobe Illustrator 15.1.0, SVG Export Plug-In . SVG Version: 6.00 Build 0)  -->
<!DOCTYPE svg PUBLIC "-//W3C//DTD SVG 1.1//EN" "http://www.w3.org/Graphics/SVG/1.1/DTD/svg11.dtd">
<svg version="1.1" id="Layer_1" xmlns="http://www.w3.org/2000/svg" xmlns:xlink="http://www.w3.org/1999/xlink" x="0px" y="0px"
	 width="92px" height="132px" viewBox="0 0 92 132" enable-background="new 0 0 92 132" xml:space="preserve">
<path display="none" fill="#6FE4D0" d="M3.109,121.091c1.663,0,1.767,5.902,1.538,7.491c1.561-0.066,7.33-0.585,7.33,0.941
	c0,2.099-8.438,1.711-9.411,0.379C1.712,128.732,1.772,121.091,3.109,121.091z"/>
<path display="none" fill="#6FE4D0" d="M89.891,10.997c-1.662,0-1.767-5.903-1.537-7.491c-1.562,0.066-7.33,0.585-7.33-0.942
	c0-2.098,8.438-1.711,9.41-0.379C91.288,3.354,91.229,10.997,89.891,10.997z"/>
<path display="none" fill="#6FE4D0" d="M89.891,121.091c-1.662,0-1.767,5.902-1.537,7.491c-1.562-0.066-7.33-0.587-7.33,0.939
	c0,2.099,8.438,1.711,9.41,0.379C91.288,128.732,91.229,121.091,89.891,121.091z"/>
<path fill="#6FE4D0" d="M90.785,15.833c-1.061,0-0.331-11.996-0.952-12.618c-0.674-0.674-13.385-0.216-13.385-1.014
	c0-1.685,14.519-1.308,15.214-0.613C92.479,2.404,91.668,15.833,90.785,15.833z"/>
<path fill="#6FE4D0" d="M2.337,1.588c0.695-0.694,15.214-1.071,15.214,0.613c0,0.798-12.71,0.34-13.384,1.014
	C3.546,3.837,4.274,15.833,3.214,15.833C2.332,15.833,1.521,2.404,2.337,1.588z"/>
<path fill="#6FE4D0" d="M91.662,131.412c-0.695,0.694-15.214,1.071-15.214-0.613c0-0.799,12.711-0.341,13.385-1.015
	c0.621-0.621-0.108-12.617,0.952-12.617C91.668,117.167,92.479,130.596,91.662,131.412z"/>
<path fill="#6FE4D0" d="M3.214,117.167c1.061,0,0.331,11.996,0.953,12.618c0.674,0.674,13.384,0.216,13.384,1.015
	c0,1.684-14.519,1.307-15.214,0.612C1.521,130.596,2.332,117.167,3.214,117.167z"/>
</svg>
