<?xml version="1.0" encoding="utf-8"?>
<!-- Generator: Adobe Illustrator 15.1.0, SVG Export Plug-In . SVG Version: 6.00 Build 0)  -->
<!DOCTYPE svg PUBLIC "-//W3C//DTD SVG 1.1//EN" "http://www.w3.org/Graphics/SVG/1.1/DTD/svg11.dtd">
<svg version="1.1" id="Layer_1" xmlns="http://www.w3.org/2000/svg" xmlns:xlink="http://www.w3.org/1999/xlink" x="0px" y="0px"
	 width="80px" height="80px" viewBox="0 0 80 80" enable-background="new 0 0 80 80" xml:space="preserve">
<path fill="#BCBCBC" d="M11.868,3c-1.663,0-1.767,5.903-1.538,7.491C8.769,10.425,3,9.905,3,11.433c0,2.098,8.438,1.711,9.411,0.379
	C13.265,10.643,13.205,3,11.868,3z"/>
<path fill="#BCBCBC" d="M11.868,76c-1.663,0-1.767-5.903-1.538-7.491C8.769,68.575,3,69.095,3,67.567
	c0-2.098,8.438-1.711,9.411-0.379C13.265,68.357,13.205,76,11.868,76z"/>
<path fill="#BCBCBC" d="M67.132,3c1.663,0,1.767,5.903,1.538,7.491C70.231,10.425,76,9.905,76,11.433
	c0,2.098-8.438,1.711-9.411,0.379C65.735,10.643,65.795,3,67.132,3z"/>
<path fill="#BCBCBC" d="M67.132,76c1.663,0,1.767-5.903,1.538-7.491c1.562,0.066,7.33,0.586,7.33-0.941
	c0-2.098-8.438-1.711-9.411-0.379C65.735,68.357,65.795,76,67.132,76z"/>
</svg>
