<?xml version="1.0" encoding="utf-8"?>
<!-- Generator: Adobe Illustrator 15.1.0, SVG Export Plug-In . SVG Version: 6.00 Build 0)  -->
<!DOCTYPE svg PUBLIC "-//W3C//DTD SVG 1.1//EN" "http://www.w3.org/Graphics/SVG/1.1/DTD/svg11.dtd">
<svg version="1.1" id="Layer_1" xmlns="http://www.w3.org/2000/svg" xmlns:xlink="http://www.w3.org/1999/xlink" x="0px" y="0px"
	 width="80px" height="80px" viewBox="0 0 80 80" enable-background="new 0 0 80 80" xml:space="preserve">
<path fill="#6FE4D0" d="M4.109,12.909c1.663,0,1.767-5.903,1.538-7.491c1.561,0.066,7.33,0.586,7.33-0.942
	c0-2.098-8.438-1.711-9.411-0.379C2.712,5.266,2.772,12.909,4.109,12.909z"/>
<path fill="#6FE4D0" d="M4.109,66.091c1.663,0,1.767,5.902,1.538,7.491c1.561-0.066,7.33-0.586,7.33,0.941
	c0,2.099-8.438,1.711-9.411,0.379C2.712,73.732,2.772,66.091,4.109,66.091z"/>
<path fill="#6FE4D0" d="M74.891,12.909c-1.662,0-1.767-5.903-1.537-7.491c-1.562,0.066-7.33,0.586-7.33-0.942
	c0-2.098,8.438-1.711,9.41-0.379C76.288,5.266,76.229,12.909,74.891,12.909z"/>
<path fill="#6FE4D0" d="M74.891,66.093c-1.662,0-1.767,5.902-1.537,7.491c-1.562-0.066-7.33-0.586-7.33,0.939
	c0,2.1,8.438,1.711,9.41,0.379C76.288,73.734,76.229,66.093,74.891,66.093z"/>
</svg>
