<?xml version="1.0" encoding="utf-8"?>
<!-- Generator: Adobe Illustrator 15.1.0, SVG Export Plug-In . SVG Version: 6.00 Build 0)  -->
<!DOCTYPE svg PUBLIC "-//W3C//DTD SVG 1.1//EN" "http://www.w3.org/Graphics/SVG/1.1/DTD/svg11.dtd">
<svg version="1.1" id="Layer_1" xmlns="http://www.w3.org/2000/svg" xmlns:xlink="http://www.w3.org/1999/xlink" x="0px" y="0px"
	 width="80px" height="80px" viewBox="0 0 80 80" enable-background="new 0 0 80 80" xml:space="preserve">
<path fill="#6FE4D0" d="M77.785,16.833c-1.061,0-0.331-11.996-0.952-12.618c-0.674-0.674-13.385-0.216-13.385-1.014
	c0-1.685,14.519-1.308,15.214-0.613C79.479,3.404,78.668,16.833,77.785,16.833z"/>
<path fill="#6FE4D0" d="M3.337,2.588c0.695-0.694,15.214-1.071,15.214,0.613c0,0.798-12.71,0.34-13.384,1.014
	C4.546,4.837,5.274,16.833,4.214,16.833C3.332,16.833,2.521,3.404,3.337,2.588z"/>
<path fill="#6FE4D0" d="M78.662,77.412c-0.695,0.694-15.214,1.071-15.214-0.613c0-0.799,12.711-0.341,13.385-1.015
	c0.621-0.621-0.108-12.617,0.952-12.617C78.668,63.167,79.479,76.596,78.662,77.412z"/>
<path fill="#6FE4D0" d="M4.214,63.167c1.061,0,0.331,11.996,0.953,12.618c0.674,0.674,13.384,0.216,13.384,1.015
	c0,1.684-14.519,1.307-15.214,0.612C2.521,76.596,3.332,63.167,4.214,63.167z"/>
</svg>
