<?xml version="1.0" encoding="utf-8"?>
<!-- Generator: Adobe Illustrator 15.1.0, SVG Export Plug-In . SVG Version: 6.00 Build 0)  -->
<!DOCTYPE svg PUBLIC "-//W3C//DTD SVG 1.1//EN" "http://www.w3.org/Graphics/SVG/1.1/DTD/svg11.dtd">
<svg version="1.1" id="Layer_1" xmlns="http://www.w3.org/2000/svg" xmlns:xlink="http://www.w3.org/1999/xlink" x="0px" y="0px"
	 width="293.552px" height="85.48px" viewBox="0 0 293.552 85.48" enable-background="new 0 0 293.552 85.48" xml:space="preserve">
<g>
	<path d="M0.02,6.593c0.553-1.569,6.156,0.295,7.579,1.039c0.456-1.495,1.883-7.108,3.324-6.6c1.978,0.697-1.191,8.527-2.771,9.001
		C6.764,10.45-0.425,7.854,0.02,6.593z"/>
	<path d="M282.02,3.485c0.554,1.569,6.156-0.295,7.579-1.039c0.455,1.495,1.883,7.108,3.323,6.6c1.978-0.697-1.19-8.527-2.771-9.001
		C288.765-0.372,281.575,2.224,282.02,3.485z"/>
	<path d="M155.085,5.995c-0.553-1.569-6.156,0.295-7.578,1.039c-0.455-1.495-1.883-7.108-3.324-6.6
		c-1.978,0.697,1.191,8.527,2.771,9.001C148.341,9.851,155.53,7.255,155.085,5.995z"/>
	<path d="M71.573,24.886c0.553,1.569,6.156-0.295,7.579-1.039c0.456,1.495,1.883,7.108,3.324,6.6
		c1.978-0.697-1.191-8.527-2.771-9.001C78.317,21.03,71.128,23.625,71.573,24.886z"/>
	<path d="M227.085,23.995c-0.553-1.569-6.156,0.295-7.578,1.039c-0.455-1.495-1.883-7.108-3.324-6.6
		c-1.978,0.697,1.191,8.527,2.771,9.001C220.341,27.851,227.53,25.255,227.085,23.995z"/>
</g>
<g>
	<path d="M293.532,61.593c-0.553-1.569-6.156,0.295-7.578,1.039c-0.456-1.495-1.883-7.108-3.324-6.6
		c-1.979,0.697,1.191,8.527,2.771,9.001C286.788,65.45,293.977,62.854,293.532,61.593z"/>
	<path d="M11.532,58.485c-0.554,1.569-6.156-0.295-7.579-1.039c-0.455,1.495-1.883,7.108-3.323,6.6
		c-1.978-0.697,1.19-8.527,2.771-9.001C4.787,54.628,11.977,57.224,11.532,58.485z"/>
	<path d="M138.467,60.995c0.553-1.569,6.156,0.295,7.578,1.039c0.455-1.495,1.883-7.108,3.324-6.6
		c1.978,0.697-1.191,8.527-2.771,9.001C145.211,64.851,138.021,62.255,138.467,60.995z"/>
	<path d="M221.979,79.886c-0.554,1.569-6.156-0.295-7.579-1.039c-0.456,1.495-1.883,7.108-3.323,6.6
		c-1.979-0.697,1.19-8.527,2.77-9.001C215.234,76.03,222.423,78.625,221.979,79.886z"/>
	<path d="M66.467,78.995c0.553-1.569,6.156,0.295,7.578,1.039c0.455-1.495,1.883-7.108,3.324-6.6
		c1.978,0.697-1.191,8.527-2.771,9.001C73.211,82.851,66.021,80.255,66.467,78.995z"/>
</g>
</svg>
