<?xml version="1.0" encoding="utf-8"?>
<!-- Generator: Adobe Illustrator 15.1.0, SVG Export Plug-In . SVG Version: 6.00 Build 0)  -->
<!DOCTYPE svg PUBLIC "-//W3C//DTD SVG 1.1//EN" "http://www.w3.org/Graphics/SVG/1.1/DTD/svg11.dtd">
<svg version="1.1" id="Layer_1" xmlns="http://www.w3.org/2000/svg" xmlns:xlink="http://www.w3.org/1999/xlink" x="0px" y="0px"
	 width="762.024px" height="349.11px" viewBox="0 0 762.024 349.11" enable-background="new 0 0 762.024 349.11"
	 xml:space="preserve">
<g>
	<path d="M708.277,247.84c-6.031-21.928-14.804-78.94-14.804-91.001c0-5.722-2.741-35.084-6.028-66.332
		c-3.607-34.229-7.677-70.495-7.677-75.104c0-8.771-18.545-16.104-21.928-15.35c-4.934,1.096-8.223,118.411-9.319,140.3
		c-1.097,21.929-11.513,106.352-18.091,124.991s-18.092,65.783-37.825,60.85c-21.929-5.479-14.802-163.911-18.091-172.683
		c-3.289-8.771-23.881-30.683-23.024,10.965c1.473,71.625-32.883,133.76-34.871,134.531c-1.301-0.409-19.289-127.953-30.912-127.953
		c-35.703,0-86.616,111.833-89.906,121.152c-10.416,1.646-8.771-172.683-9.867-178.166c-1.097-5.482-13.156-12.061-17.543-12.061
		c-4.386,0-52.388,204.273-61.397,205.027c-13.156,1.098-17.542-115.121-28.506-166.653c-1.953-9.165-11.685-12.745-15.351-12.06
		c-17.542,3.289-51.531,163.365-58.109,164.46s-6.578-13.157-16.445-54.819c-9.868-41.664-32.892-57.015-53.724-57.015
		C114.026,181,1.1,253.3,0,259.9c0,0,2.2,12.1,9.9,12.061c7.7-0.039,97.58-74.555,132.665-76.748
		c35.084-2.193,31.8,140.301,55.9,141.436c24.121,1.101,54.82-154.592,62.495-154.592s18.639,92.101,20.8,117.301
		c2.193,25.199,9.9,41,26.3,39.471c23.025-2.193,46.051-149.111,52.628-150.207c6.579-1.098,10.4,71.3,14.801,97.6
		c4.385,26.301,7.399,43.801,10.399,52.078c5.481,15.301,19.9,13.6,23.023-4.934c11.513-67.428,58.108-129.375,72.363-129.375
		c4.387,0,13.3,70.6,19,113.666c1.985,14.9,18.1,8.8,23.499,1.027c6.435-9.269,28.929-51.104,32.08-51.104
		c4.386,0,9.4,41.399,16.4,62.496c9.867,29.6,34,16.399,36.7,14.254c18.836-15.062,31.246-65.783,36.729-91.002
		c5.269-24.224,13.156-167.75,15.896-167.201c3.272,0.7,23.6,188,52.1,239.562c13.056,23.601,24.3,8,23,4.4
		C733.492,320.8,714.2,269.2,708.3,247.84H708.277z"/>
	<path d="M533.947,26.367c-6.938,0-9.867,8.771-2.191,16.446c7.674,7.7,25.2,11,30.7,6.6c5.479-4.386,10.963-8.771,5.479-17.542
		C562.455,23.1,538.3,26.4,533.9,26.367H533.947z"/>
	<path d="M754.324,136.555c3.838,1.1,7.7,9.7,7.7,13.705c0,4.386-40.566,31.797-61.398,36.2
		c-20.832,4.388-47.146,6.029-48.242,0.547c-1.096-5.479-1.645-19.185,7.127-19.185c20.857,0,44.404-2.193,55.369-8.771
		c10.938-6.551,39.42-22.451,39.42-22.496H754.324z"/>
</g>
</svg>
