<svg xmlns="http://www.w3.org/2000/svg" xmlns:xlink="http://www.w3.org/1999/xlink" version="1.1" id="Layer_1" x="0px" y="0px" width="762px" height="349px" viewBox="0 0 762 349" enable-background="new 0 0 762 349" xml:space="preserve">
<g>
	<path d="M708.277 247.84c-6.031-21.928-14.803-78.94-14.803-91.001c0-5.722-2.742-35.084-6.029-66.332 c-3.607-34.229-7.676-70.495-7.676-75.104c0-8.771-18.545-16.104-21.928-15.35c-4.934 1.096-8.223 118.411-9.32 140.3 c-1.096 21.929-11.512 106.352-18.09 124.991s-18.092 65.783-37.826 60.85c-21.928-5.48-14.801-163.912-18.09-172.683 s-23.881-30.683-23.025 10.965c1.473 71.625-32.883 133.761-34.871 134.531c-1.301-0.41-19.289-127.953-30.912-127.953 c-35.703 0-86.616 111.833-89.906 121.152c-10.416 1.645-8.771-172.683-9.867-178.166c-1.097-5.482-13.157-12.061-17.543-12.061 s-52.388 204.273-61.398 205.027c-13.156 1.098-17.542-115.121-28.506-166.653c-1.953-9.165-11.685-12.745-15.351-12.06 c-17.542 3.289-51.531 163.365-58.109 164.46s-6.578-13.158-16.445-54.82c-9.868-41.664-32.892-57.014-53.724-57.014 C114.026 181 1.1 253.3 0 259.9c0 0 2.2 12.1 9.9 12.061s97.58-74.555 132.665-76.748 c35.084-2.193 31.8 140.3 55.9 141.436c24.121 1.1 54.82-154.592 62.495-154.592s18.639 92.1 20.8 117.3 c2.193 25.2 9.9 41 26.3 39.471c23.025-2.193 46.05-149.111 52.628-150.207c6.579-1.098 10.4 71.3 14.8 97.6 c4.385 26.3 7.4 43.8 10.4 52.078c5.481 15.3 19.9 13.6 23.023-4.934c11.513-67.428 58.109-129.375 72.363-129.375 c4.387 0 13.3 70.6 19 113.666c1.986 14.9 18.1 8.8 23.5 1.027c6.434-9.268 28.928-51.104 32.08-51.104 c4.385 0 9.4 41.4 16.4 62.496c9.867 29.6 34 16.4 36.7 14.254c18.836-15.061 31.246-65.783 36.729-91.002 c5.268-24.223 13.156-167.75 15.896-167.201c3.273 0.7 23.6 188 52.1 239.562c13.055 23.6 24.3 8 23 4.4 C733.492 320.8 714.2 269.2 708.3 247.84z"/>
	<path d="M533.947 26.367c-6.938 0-9.867 8.771-2.191 16.446c7.674 7.7 25.2 11 30.7 6.6 c5.48-4.386 10.963-8.771 5.48-17.542C562.455 23.1 538.3 26.4 533.9 26.367z"/>
	<path d="M754.324 136.555c3.838 1.1 7.7 9.7 7.7 13.705c0 4.386-40.566 31.796-61.398 36.2 c-20.832 4.387-47.146 6.029-48.242 0.547c-1.096-5.48-1.645-19.185 7.127-19.185c20.857 0 44.404-2.193 55.369-8.771 C725.818 152.5 754.3 136.6 754.3 136.555z"/>
</g>
</svg>
