<?xml version="1.0" encoding="utf-8"?>
<!-- Generator: Adobe Illustrator 15.1.0, SVG Export Plug-In . SVG Version: 6.00 Build 0)  -->
<!DOCTYPE svg PUBLIC "-//W3C//DTD SVG 1.1//EN" "http://www.w3.org/Graphics/SVG/1.1/DTD/svg11.dtd">
<svg version="1.1" id="Layer_1" xmlns="http://www.w3.org/2000/svg" xmlns:xlink="http://www.w3.org/1999/xlink" x="0px" y="0px"
	 width="121px" height="39px" viewBox="62.312 220.5 121 39" enable-background="new 62.312 220.5 121 39" xml:space="preserve">
<g>
	<path d="M120.302,243.761c-0.431-0.646-0.203-1.016,0.813-1.665c1.016-0.65,3.331-2.926,3.656-3.291
		c0.325-0.367,0.798-0.922,1.123-0.922c0.163,0,0.2,2.4,0.2,3.143c-0.041,0.732-0.299,5,0,5c0.487,0,1.462-1.219,1.788-1.625
		c0.325-0.406,3.589-6.178,3.833-6.176c2.233,0,2.1,9.801,0.8,10.601c-0.529,0.325-1.788-1.22-1.477-1.732
		c1.842-1.517,1.462-6.448,1.002-6.419c-0.326,0.021-0.827,0.76-1.151,1.2c-0.325,0.487-3.941,6.623-4.916,6.623
		c-0.975,0-1.463-1.991-1.341-3.333c0.123-1.34,0.487-5.037,0.284-5.037s-2.762,3.007-3.291,3.494
		c-0.551,0.479-1.225,0.279-1.325,0.14H120.302z"/>
	<path d="M123.756,232.955c0-0.57,2.315-0.489,2.437-0.245s0.213,0.625-0.731,1c-1.083,0.39-1.662,0.29-1.662-0.755H123.756z"/>
</g>
<g>
	<path d="M145.19,232.6c0-0.57,2.315-0.488,2.438-0.244c0.122,0.199,0.2,0.623-0.732,1c-1.083,0.444-1.696,0.345-1.696-0.756H145.19
		z"/>
	<path d="M140.586,243.759c-0.811-0.649,0.221-1.351,1.301-2.167c1.788-1.355,4.818-4.859,5.172-4.853
		c1.328,0.026-0.65,7.749-0.272,7.749s1.139-1.844,1.49-2.817c0.352-0.976,1.328-3.655,1.518-4.276
		c0.188-0.625,0.839-2.358,1.163-3.17c0.326-0.813,1.475-7.16,1.87-7.261c0.434-0.11,0.9,0.2,1,0.601
		c0.061,0.265-0.378,2.814-0.488,3.681c-0.11,0.866-0.461,2.739-0.624,3.551c-0.163,0.812-1.246,8.963-1.136,10.399
		c0.11,1.438,0.08,2.801,0.6,2.793c0.542,0,0.3,1.299-0.378,1.299c-0.705,0-1.274-0.73-1.437-1.624
		c-0.372-2.05,1.083-10.022,0.569-10.077c-0.192-0.02-2.708,7.665-3.25,8.561c-0.542,0.894-1.273,2.086-1.842,2.1
		c-0.57,0.027-0.65-0.38-0.732-0.812c-0.081-0.432,0.981-7.838,0.841-7.908c-0.216-0.104-1.899,1.772-3.466,3.5
		c-0.598,0.675-1.385,1.175-1.885,0.733H140.586z"/>
	<path d="M158.163,233.814c-0.129-0.498-9.263,1.68-8.991,2.762c0.325,1.3,4.441-0.297,5.688-0.893
		c1.246-0.584,3.54-1.184,3.34-1.869H158.163z"/>
</g>
<path d="M162.449,226.6c-0.268-0.188-0.285-0.949,0.06-1.119c1.321-0.649,3,1.199,2.6,3.299c-0.229,1.146-1.625,6.283-1.95,7.8
	c-0.285,1.335-1.166,5.419-1.246,6.987c-0.108,2.101,0.2,3.601,0.2,4.201c0,0.393-0.561,0.924-0.649,0.16
	c-0.542-4.658,0.554-8.76,0.705-9.588c0.433-2.384,1.857-7.949,2.028-8.826c0.669-3.714-1.097-2.514-1.797-2.914H162.449z"/>
<path d="M162.993,251.584c0.325,0,0.7,1.7,0.4,1.896c-0.27,0.215-1.245-0.164-1.299-0.813C162.07,252,163,251.6,163,251.584H162.993
	z"/>
<path d="M112.845,242.406c-0.292-0.992-1.137-2.479-2.031-2.479c-1.016,0-2.113,1.382-2.356,2.7c-0.206,1.1,0.5,2.2,1.2,2.193
	c0.163-0.012,0.391-1.604,0.609-2.397c0.447-1.625,1.359-0.282,1.4,1c0.041,0.812-1.341,2.234-2.479,2.234
	c-0.896,0-2.072-1.706-2.153-2.152s-0.041-0.896-0.65-0.896c-0.609,0-0.406,1.668-0.527,2.357c-0.107,0.604-2.086,1.991-2.37,2.084
	c-0.138-1.242-1.106-8.572-1.925-8.572c-2.035,0-4.938,6.375-5.125,6.906c-0.594,0.094-0.5-9.844-0.562-10.156
	c-0.062-0.312-0.75-0.688-1-0.688s-2.986,11.645-3.5,11.7c-0.75,0.062-1-6.562-1.625-9.5c-0.111-0.523-0.666-0.728-0.875-0.688
	c-1,0.188-2.938,9.312-3.312,9.375c-0.374,0.063-0.375-0.75-0.938-3.125S82.75,239,81.6,239s-7.625,4.125-7.688,4.5
	c0,0,0.1,0.7,0.6,0.688c0.5-0.012,5.488-4.287,7.488-4.375s1.812,8,3.2,8.1c1.388,0.1,3.125-8.812,3.562-8.812s1.062,5.2,1.2,6.688
	c0.138,1.487,0.567,2.3,1.5,2.25c1.312-0.125,2.625-8.5,3-8.562c0.375-0.062,0.594,4.1,0.8,5.6c0.206,1.5,0.424,2.5,0.6,2.969
	c0.312,0.9,1.1,0.801,1.312-0.281c0.656-3.844,3.312-7.375,4.125-7.375c0.25,0,0.8,5,1.2,7.5c0.219,1.2,0.9,0.601,1.803-0.076
	c0.807-0.711,1.844-2.18,2.09-2.209c0.326-0.043,0.5,0.399,1.3,1.199c0.854,0.9,3,0.4,3.859-0.322
	c0.972-0.98,1.749-2.681,1.249-4.074H112.845z"/>
<path d="M72.855,225.172c0.574,0.5,0.2,2.252-0.372,2.133c-1.483-0.289-3.28,1.211-3.28,4.1c-0.322,2.896-0.053,3.982-0.064,7.4
	c-0.011,3.1,0,5.801,0.1,6.607c0.184,5.5,1.9,4.6,3.3,4.8c0.623,0.101,0.9,1.7,0.3,2.138c-1.408,1.103-5.023-0.222-4.951-3.738
	c-0.056-0.24-0.139-5.176-0.193-9.897c-0.047-3.979-0.055-7.812-0.055-8.562c-0.013-4.152,3.96-5.952,5.26-4.98H72.855z"/>
<path d="M171.253,252.132c-0.574-0.472-0.248-2.252,0.372-2.132c1.483,0.3,3.28-1.212,3.28-4.126
	c0.322-2.896,0.053-3.981,0.064-7.399c0.011-3.146-0.026-5.828-0.053-6.606c-0.184-5.454-1.934-4.579-3.304-4.813
	c-0.623-0.105-0.917-1.679-0.331-2.137c1.408-1.104,5,0.2,5,3.736c0.056,0.201,0.1,5.201,0.199,9.9c0.047,4,0.101,7.801,0.101,8.562
	c-0.101,4.183-4.081,5.982-5.281,5.015H171.253z"/>
</svg>
