<?xml version="1.0" encoding="utf-8"?>
<!-- Generator: Adobe Illustrator 15.1.0, SVG Export Plug-In . SVG Version: 6.00 Build 0)  -->
<!DOCTYPE svg PUBLIC "-//W3C//DTD SVG 1.1//EN" "http://www.w3.org/Graphics/SVG/1.1/DTD/svg11.dtd">
<svg version="1.1" id="Layer_1" xmlns="http://www.w3.org/2000/svg" xmlns:xlink="http://www.w3.org/1999/xlink" x="0px" y="0px"
	 width="315.526px" height="97.476px" viewBox="-103 -29.656 315.526 97.476" enable-background="new -103 -29.656 315.526 97.476"
	 xml:space="preserve">
<g>
	<path fill="#FFF78F" d="M57.394,34.005c-1.489-2.233-0.699-3.513,2.813-5.757c3.512-2.249,11.514-10.118,12.642-11.381
		c1.121-1.269,2.756-3.186,3.882-3.186c0.561,0,0.689,8.299,0.689,10.864c-0.143,2.534-1.034,17.288,0,17.288
		c1.685,0,5.058-4.213,6.183-5.616c1.126-1.404,12.409-21.363,13.253-21.354c7.722,0,7.258,33.888,2.77,36.654
		c-1.83,1.121-6.187-4.22-5.11-5.989c6.369-5.242,5.056-22.292,3.466-22.195c-1.128,0.073-2.859,2.634-3.981,4.149
		c-1.123,1.682-13.627,22.901-16.998,22.901c-3.369,0-5.057-6.886-4.635-11.524c0.425-4.631,1.685-17.415,0.981-17.415
		c-0.702,0-9.547,10.396-11.377,12.082c-1.906,1.656-4.236,0.96-4.583,0.481h0.005V34.005z"/>
	<path fill="#FFF78F" d="M69.337-3.357c0-1.972,8.002-1.691,8.427-0.847c0.419,0.844,0.737,2.161-2.528,3.457
		c-3.744,1.349-5.746,1.004-5.746-2.61H69.337z"/>
</g>
<g>
	<path fill="#FFF78F" d="M143.444-4.585c0-1.972,8.006-1.689,8.432-0.845c0.421,0.689,0.69,2.155-2.53,3.458
		c-3.747,1.537-5.864,1.195-5.864-2.613H143.444z"/>
	<path fill="#FFF78F" d="M127.526,33.999c-2.8-2.248,0.763-4.673,4.498-7.493c6.184-4.688,16.66-16.802,17.884-16.779
		c4.59,0.091-2.247,26.792-0.939,26.792c1.307,0,3.938-6.375,5.152-9.74c1.215-3.373,4.591-12.638,5.246-14.786
		c0.65-2.162,2.9-8.152,4.021-10.96c1.128-2.81,5.102-24.758,6.468-25.106c1.499-0.381,3.111,0.693,3.457,2.078
		c0.208,0.918-1.309,9.73-1.688,12.729c-0.38,2.991-1.595,9.469-2.157,12.276c-0.565,2.811-4.308,30.992-3.927,35.954
		c0.377,4.973,0.275,9.688,2.073,9.656c1.876,0,1.038,4.494-1.308,4.494c-2.437,0-4.404-2.521-4.967-5.613
		c-1.285-7.091,3.739-34.65,1.966-34.843c-0.661-0.071-9.361,26.503-11.238,29.602c-1.869,3.089-4.397,7.213-6.367,7.26
		c-1.972,0.096-2.25-1.314-2.532-2.811c-0.278-1.49,3.394-27.1,2.909-27.342c-0.748-0.358-6.565,6.13-11.985,12.1
		c-2.067,2.338-4.788,4.066-6.517,2.538h-0.049V33.999z"/>
	<path fill="#FFF78F" d="M188.301-0.384c-0.444-1.723-32.025,5.806-31.088,9.547c1.125,4.495,15.357-1.027,19.666-3.086
		c4.307-2.02,12.243-4.095,11.55-6.461H188.301L188.301-0.384z"/>
</g>
<path fill="#FFF78F" d="M203.12-25.331c-0.926-0.648-0.986-3.283,0.206-3.87c4.57-2.242,10.372,4.147,8.993,11.405
	c-0.795,3.965-5.621,21.726-6.743,26.972c-0.986,4.617-4.034,18.735-4.31,24.156c-0.374,7.267,0.693,12.452,0.693,14.525
	c0,1.363-1.943,3.196-2.246,0.554c-1.874-16.106,1.912-30.287,2.438-33.15c1.496-8.242,6.418-27.484,7.013-30.516
	c2.314-12.841-3.794-8.691-6.213-10.076H203.12z"/>
<path fill="#FFF78F" d="M205.002,61.055c1.122,0,2.422,5.877,1.381,6.556c-0.932,0.743-4.301-0.568-4.492-2.812
	c-0.082-2.306,3.135-3.691,3.135-3.744H205.002z"/>
<path fill="#FFF78F" d="M31.614,29.321c-1.012-3.43-3.934-8.573-7.022-8.573c-3.515,0-7.307,4.778-8.148,9.336
	c-0.712,3.802,1.73,7.606,4.15,7.584c0.561-0.041,1.352-5.549,2.107-8.289c1.544-5.619,4.697-0.978,4.837,3.457
	c0.142,2.808-4.634,7.725-8.571,7.725c-3.098,0-7.161-5.897-7.442-7.44c-0.28-1.543-0.142-3.098-2.249-3.098
	c-2.107,0-1.404,5.769-1.823,8.149c-0.369,2.089-7.211,6.884-8.192,7.203c-0.479-4.289-3.825-29.634-6.659-29.634
	c-7.036,0-17.071,22.042-17.72,23.875c-2.052,0.328-1.729-34.036-1.941-35.112c-0.213-1.082-2.594-2.379-3.458-2.379
	s-10.322,40.263-12.101,40.452c-2.593,0.215-3.458-22.689-5.618-32.846c-0.381-1.81-2.302-2.519-3.026-2.379
	c-3.457,0.651-10.16,32.196-11.449,32.414c-1.297,0.22-1.297-2.593-3.245-10.807c-1.949-8.21-6.487-11.415-10.464-11.415
	c-3.975,0-26.364,14.264-26.58,15.56c0,0,0.345,2.422,2.074,2.378c1.728-0.04,18.975-14.824,25.891-15.127
	c6.915-0.305,6.267,27.66,11.065,28.009c4.798,0.348,10.805-30.468,12.314-30.468c1.512,0,3.672,17.978,4.149,23.122
	c0.476,5.14,1.962,7.952,5.186,7.781c4.534-0.432,9.076-29.389,10.373-29.605c1.296-0.213,2.056,14.177,2.766,19.363
	c0.712,5.188,1.466,8.645,2.073,10.266c1.081,3.11,3.805,2.772,4.538-0.969c2.27-13.293,11.454-25.5,14.261-25.5
	c0.864,0,2.77,17.288,4.15,25.933c0.757,4.146,3.111,2.076,6.234-0.265c2.791-2.456,6.377-7.54,7.229-7.639
	c1.124-0.146,1.729,1.378,4.491,4.147c2.954,3.111,10.372,1.38,13.342-1.114c3.364-3.389,6.048-9.271,4.32-14.088h0.158V29.321z"/>
</svg>
